<?xml version="1.0" standalone="no"?>
<!DOCTYPE svg PUBLIC "-//W3C//DTD SVG 20010904//EN"
 "http://www.w3.org/TR/2001/REC-SVG-20010904/DTD/svg10.dtd">
<svg version="1.0" xmlns="http://www.w3.org/2000/svg"
 width="500.000000pt" height="500.000000pt" viewBox="0 0 500.000000 500.000000"
 preserveAspectRatio="xMidYMid meet">

<g transform="translate(0.000000,500.000000) scale(0.100000,-0.100000)"
fill="#000000" stroke="none">
<path d="M695 4088 c-3 -7 -4 -609 -3 -1338 l3 -1325 1805 0 1805 0 3 1338 2
1337 -1315 0 -1315 0 0 -271 0 -270 48 39 c128 108 301 145 499 107 270 -51
437 -275 460 -613 l6 -94 31 6 c17 3 68 11 113 17 152 23 310 -17 425 -106
l58 -45 2 333 3 332 270 0 270 0 3 -992 2 -993 -223 0 -223 0 -23 101 -22 100
-33 -43 c-125 -163 -370 -231 -610 -171 -245 61 -398 279 -422 601 -3 42 -7
82 -9 88 -2 8 -21 7 -67 -2 -34 -8 -99 -14 -144 -14 -178 0 -288 42 -402 156
-71 71 -72 71 -78 45 -3 -14 -14 -57 -23 -96 l-17 -70 -222 -3 -222 -2 0 930
0 930 -215 0 c-163 0 -217 -3 -220 -12z"/>
<path d="M1836 3305 c-63 -22 -88 -47 -126 -120 l-35 -68 0 -151 c0 -134 3
-157 23 -208 79 -197 361 -200 429 -5 23 68 26 335 4 412 -35 119 -172 184
-295 140z"/>
<path d="M3037 2619 c-72 -11 -120 -47 -154 -116 -28 -57 -28 -61 -28 -233 0
-169 1 -177 27 -232 19 -40 38 -65 69 -85 39 -26 50 -28 134 -28 84 0 95 2
134 28 32 22 50 45 74 95 31 66 32 70 32 212 0 87 -5 161 -12 186 -18 56 -66
125 -102 147 -41 24 -114 35 -174 26z"/>
</g>
</svg>
